{"accessors" : [{"bufferView" : 0, "byteOffset" : 0, "componentType" : 5123, "count" : 39636, "type" : "SCALAR", "max" : [39635], "min" : [0]}, {"bufferView" : 1, "byteOffset" : 0, "componentType" : 5126, "count" : 39636, "type" : "VEC3", "max" : [85.25846099853516, 172.390625, 16.935096740722656], "min" : [-85.11763000488281, -0.0017495994688943028, -17.117238998413086], "name" : "POSITION"}, {"bufferView" : 1, "byteOffset" : 12, "componentType" : 5126, "count" : 39636, "type" : "VEC3", "max" : [0.999951183795929, 1.0000044107437134, 0.9999933242797852], "min" : [-0.999951183795929, -1.0000044107437134, -1.0000040531158447], "name" : "NORMAL"}, {"bufferView" : 1, "byteOffset" : 24, "componentType" : 5126, "count" : 39636, "type" : "VEC2", "max" : [0.9978129863739014, 0.997635006904602], "min" : [0.003913000226020813, 0.002290010452270508], "name" : "TEXCOORD_0"}, {"bufferView" : 0, "byteOffset" : 79272, "componentType" : 5123, "count" : 4344, "type" : "SCALAR", "max" : [2919], "min" : [0]}, {"bufferView" : 4, "byteOffset" : 0, "componentType" : 5126, "count" : 2920, "type" : "VEC3", "max" : [9.461030960083008, 172.5423583984375, 10.689522743225098], "min" : [-9.320550918579102, 147.27064514160156, -15.650036811828613], "name" : "POSITION"}, {"bufferView" : 4, "byteOffset" : 12, "componentType" : 5126, "count" : 2920, "type" : "VEC3", "max" : [0.9996836185455322, 0.999989926815033, 0.9999904632568359], "min" : [-0.9996836185455322, -0.9995498061180115, -0.999695897102356], "name" : "NORMAL"}, {"bufferView" : 4, "byteOffset" : 24, "componentType" : 5126, "count" : 2920, "type" : "VEC2", "max" : [0.9900469779968262, 0.9808130264282227], "min" : [0.05304599925875664, 0.45784300565719604], "name" : "TEXCOORD_0"}, {"bufferView" : 5, "byteOffset" : 0, "componentType" : 5126, "normalized" : false, "count" : 32, "type" : "SCALAR", "max" : [1.0333333333333334], "min" : [0]}, {"bufferView" : 5, "byteOffset" : 128, "componentType" : 5126, "normalized" : false, "count" : 32, "type" : "VEC3", "max" : [3.6506030559539795, 94.2269287109375, 172.6517333984375], "min" : [-0.20360293984413147, 86.74815368652344, 0.4245748519897461]}], "animations" : [{"channels" : [{"sampler" : 0, "target" : {"node" : -1, "path" : "translation"}}], "samplers" : [{"input" : 8, "interpolation" : "CUBICSPLINE", "output" : 9}], "name" : "mixamo.com"}], "asset" : {"generator" : "Aspose.3D 24.6.0", "version" : "2.0"}, "buffers" : [{"uri" : "buffer.bin", "byteLength" : 8345536}], "bufferViews" : [{"buffer" : 0, "byteOffset" : 0, "byteLength" : 87960, "target" : 34963}, {"buffer" : 0, "byteOffset" : 87964, "byteLength" : 1268352, "byteStride" : 32, "target" : 34962}, {"buffer" : 0, "byteOffset" : 1356320, "byteLength" : 4165753}, {"buffer" : 0, "byteOffset" : 5522076, "byteLength" : 2729498}, {"buffer" : 0, "byteOffset" : 8251576, "byteLength" : 93440, "byteStride" : 32, "target" : 34962}, {"buffer" : 0, "byteOffset" : 8345020, "byteLength" : 512}], "images" : [{"mimeType" : "image/png", "bufferView" : 2}, {"mimeType" : "image/png", "bufferView" : 3}], "materials" : [{"name" : "Paladin_MAT", "pbrMetallicRoughness" : {"baseColorFactor" : [1, 1, 1, 1], "baseColorTexture" : {"index" : 1, "texCoord" : 0}, "metallicFactor" : 1, "roughnessFactor" : 1}, "normalTexture" : {"index" : 0, "texCoord" : 0, "scale" : 1}, "emissiveFactor" : [0, 0, 0], "alphaMode" : "OPAQUE", "doubleSided" : false}], "meshes" : [{"primitives" : [{"attributes" : {"POSITION" : 1, "NORMAL" : 2, "TEXCOORD_0" : 3}, "indices" : 0, "material" : 0, "mode" : 4}], "name" : "Paladin_J_Nordstrom_Helmet"}, {"primitives" : [{"attributes" : {"POSITION" : 5, "NORMAL" : 6, "TEXCOORD_0" : 7}, "indices" : 4, "material" : 0, "mode" : 4}], "name" : "Paladin_J_Nordstrom"}], "nodes" : [{"mesh" : 0, "name" : "Paladin_J_Nordstrom_Helmet"}, {"mesh" : 1, "name" : "Paladin_J_Nordstrom"}], "samplers" : [{"magFilter" : 9729, "minFilter" : 9729, "wrapS" : 10497, "wrapT" : 10497}, {"magFilter" : 9729, "minFilter" : 9729, "wrapS" : 10497, "wrapT" : 10497}], "scene" : 0, "scenes" : [{"nodes" : [0, 1]}], "textures" : [{"sampler" : 0, "source" : 0, "name" : "file4"}, {"sampler" : 1, "source" : 1, "name" : "file1"}]}